<svg width="24.75" height="27.5" viewBox="0 0 25 29" fill="none" xmlns="http://www.w3.org/2000/svg">
<path d="M10.8844 23.1625L6.14062 18.4531L7.58438 17.0094L10.8844 20.2406L17.2094 13.9156L18.6531 15.3937L10.8844 23.1625ZM2.1875 28.25C1.6375 28.25 1.15625 28.0437 0.74375 27.6312C0.33125 27.2187 0.125 26.7375 0.125 26.1875V4.875C0.125 4.325 0.33125 3.84375 0.74375 3.43125C1.15625 3.01875 1.6375 2.8125 2.1875 2.8125H4.42188V0.75H6.65625V2.8125H18.3438V0.75H20.5781V2.8125H22.8125C23.3625 2.8125 23.8437 3.01875 24.2562 3.43125C24.6687 3.84375 24.875 4.325 24.875 4.875V26.1875C24.875 26.7375 24.6687 27.2187 24.2562 27.6312C23.8437 28.0437 23.3625 28.25 22.8125 28.25H2.1875ZM2.1875 26.1875H22.8125V11.4062H2.1875V26.1875ZM2.1875 9.34375H22.8125V4.875H2.1875V9.34375ZM2.1875 9.34375V4.875V9.34375Z" fill="white"/>
</svg>
