<svg width="350" height="350" viewBox="25 25 300 300" fill="none" xmlns="http://www.w3.org/2000/svg">
<path d="M280.607 158.592C275.167 176.284 262.304 207.478 214.781 227.85C213.29 228.488 209.179 226.1 207.619 225.52C206.313 225.034 205.329 223.98 204.419 222.955C201.799 219.999 199.315 216.94 196.976 213.787C196.203 212.746 195.41 211.562 195.574 210.342C195.848 208.305 191.514 179.707 193.545 180.451C224 191.596 235.117 183.501 266.818 154.39C271.381 150.199 281.213 156.621 280.607 158.592Z" fill="#EDEDED"/>
<path d="M278.61 160.846C273.171 178.542 260.306 209.734 212.782 230.104C211.291 230.741 207.182 228.354 205.622 227.773C204.313 227.29 203.333 226.233 202.423 225.211C199.805 222.257 197.32 219.191 194.982 216.041C194.205 214.998 193.414 213.814 193.575 212.597C193.848 210.56 189.515 181.965 191.545 182.707C192.021 182.882 192.497 183.05 192.966 183.218C193.757 191.471 195.234 202.139 195.073 203.357C194.905 204.575 195.703 205.758 196.473 206.801C198.811 209.951 201.296 213.01 203.921 215.971C204.824 216.993 205.811 218.051 207.12 218.533C208.674 219.114 212.79 221.501 214.281 220.864C255.728 203.098 270.813 177.093 277.596 158.998C278.352 159.725 278.75 160.397 278.61 160.846Z" fill="#DCD8D8"/>
<path d="M291.289 159.832C291.738 160.425 292.252 161.059 293.003 161.165C293.829 161.282 294.652 160.737 295.337 160.178C302.56 154.282 314.171 149.13 325.131 144.076C291.731 97.9898 290.369 96.3672 290.369 96.3672C290.369 96.3672 266.91 108.737 259.4 117.386C258.997 117.851 258.586 118.33 258.364 118.897C257.529 121.023 281.338 146.691 291.289 159.832Z" fill="#575757"/>
<path d="M290.387 156.018C290.805 156.625 291.283 157.278 292 157.453C292.787 157.646 293.586 157.211 294.251 156.748C301.274 151.866 312.478 148.127 323.057 144.414C292.021 97.3408 290.75 95.665 290.75 95.665C290.75 95.665 268.075 105.084 260.723 112.551C260.329 112.952 259.927 113.367 259.703 113.883C258.863 115.821 281.129 142.553 290.387 156.018Z" fill="#8A8888"/>
<path d="M285.212 151.729C285.481 152.416 285.799 153.161 286.455 153.495C287.178 153.861 288.054 153.62 288.807 153.321C296.759 150.168 308.519 149.081 319.667 147.878C300.18 94.9703 299.323 93.0488 299.323 93.0488C299.323 93.0488 275.099 97.05 266.238 102.644C265.762 102.945 265.277 103.257 264.941 103.709C263.683 105.404 279.267 136.508 285.212 151.729Z" fill="white"/>
<path d="M276.216 142.025C278.424 138.242 279.417 135.354 281.626 131.57C282.026 130.885 282.493 130.141 283.377 130.09C284.124 130.048 284.788 130.55 285.112 131.226C285.616 132.279 285.346 133.459 285.018 134.542C284.294 136.939 283.293 139.253 282.043 141.421C285.61 145.813 284.711 152.668 281.2 157.105C280.864 157.528 280.495 157.945 280.01 158.181C278.544 158.891 272.457 155.277 272.027 155.027C271.293 154.6 273.611 148.051 271.46 137.555C271.368 137.107 272.069 136.916 272.381 137.251C273.833 138.814 275.38 140.37 276.216 142.025Z" fill="#FFC1C0"/>
<path d="M273.724 107.795C279.861 105.695 286.096 103.887 292.406 102.384C294.217 101.953 296.033 101.547 297.855 101.166C298.295 101.073 298.109 100.399 297.668 100.491C291.32 101.822 285.036 103.452 278.844 105.384C277.067 105.938 275.299 106.518 273.537 107.12C273.115 107.265 273.296 107.941 273.724 107.795Z" fill="#EDEDED"/>
<path d="M275.069 111.223C282.023 109.524 288.976 107.826 295.93 106.127C296.367 106.02 296.182 105.345 295.744 105.452C288.79 107.151 281.837 108.849 274.883 110.548C274.445 110.654 274.631 111.33 275.069 111.223Z" fill="#EDEDED"/>
<path d="M277.14 116.759C283.413 114.411 289.816 112.414 296.315 110.792C298.156 110.332 300.005 109.903 301.86 109.502C302.3 109.407 302.113 108.732 301.674 108.828C295.127 110.242 288.661 112.024 282.317 114.172C280.519 114.78 278.732 115.419 276.955 116.084C276.535 116.24 276.717 116.917 277.14 116.759Z" fill="#EDEDED"/>
<path d="M280.335 122.245C285.306 120.52 290.277 118.795 295.248 117.07C295.671 116.923 295.489 116.247 295.061 116.395C290.091 118.12 285.12 119.845 280.149 121.57C279.726 121.717 279.908 122.393 280.335 122.245Z" fill="#EDEDED"/>
<path d="M281.678 126.689C283.608 126.281 285.459 125.536 287.136 124.494C287.517 124.257 287.167 123.651 286.782 123.89C285.153 124.902 283.368 125.618 281.492 126.014C281.051 126.108 281.238 126.782 281.678 126.689Z" fill="#EDEDED"/>
<path d="M139.32 218.017C126.488 221.008 113.129 223.818 103.178 232.976C85.9694 248.811 98.6535 268.502 93.2151 265.647C89.5926 263.746 84.2383 276.058 81.131 273.507C71.7559 265.808 63.4189 231.299 93.9354 203.228C105.388 192.693 117.904 187.905 132.72 185.848" fill="#EDEDED"/>
<path d="M99.2955 267.623C101.26 268.683 103.15 269.881 104.947 271.204C105.374 271.519 105.824 271.883 105.944 272.4C106.067 272.93 105.79 273.494 105.367 273.834C104.943 274.174 104.397 274.324 103.859 274.4C102.227 274.63 100.577 274.252 98.9721 273.876C98.5241 273.772 98.0586 273.658 97.7058 273.363C97.2788 273.005 97.0905 272.445 96.9211 271.914C96.6656 271.112 96.4108 270.309 96.1553 269.506C96.0517 269.179 95.9467 268.841 95.9852 268.5C96.0741 267.719 96.9162 267.202 97.7023 267.195C98.4884 267.188 99.2094 267.577 99.2955 267.623Z" fill="#FFC1C0"/>
<path d="M98.8774 284.498L84.7731 243.462C84.6569 243.125 84.8368 242.756 85.1742 242.64L88.7491 241.411C89.0865 241.295 89.454 241.475 89.5702 241.812L103.685 282.877C103.712 282.955 103.724 283.039 103.719 283.122L103.48 287.543C103.45 288.095 102.785 288.358 102.386 287.974L99.0405 284.753C98.967 284.683 98.911 284.595 98.8774 284.498Z" fill="#575757"/>
<path d="M90.2874 257.038C89.2283 256.639 88.0873 256.795 87.0065 257.138C83.6171 258.213 79.3338 261.035 78.4525 264.707C77.8561 267.191 78.4315 269.782 79.7216 271.953C80.3551 273.02 81.1468 273.989 82.0232 274.865C82.8107 275.652 83.9118 276.047 84.8792 276.598C85.6709 277.05 86.8511 277.402 87.3453 276.636C88.4394 277.463 89.642 278.148 90.9111 278.668C92.3517 279.258 94.1024 279.601 95.3869 278.723C96.0862 279.117 96.803 279.519 97.5947 279.65C98.3864 279.782 99.281 279.591 99.7906 278.971C100.671 279.738 101.911 280.546 102.905 279.933C103.694 279.446 103.79 278.341 103.685 277.419C103.302 274.093 101.478 271.14 100.134 268.072C98.9751 265.425 98.2149 262.577 95.9133 260.662C95.0677 259.959 94.1304 259.38 93.1826 258.828C92.344 258.34 91.5936 257.714 90.7396 257.246C90.5912 257.164 90.44 257.095 90.2874 257.038Z" fill="#FFC1C0"/>
<path d="M112.773 289.252H66.748V294.502H112.773V289.252Z" fill="#F9F9F9"/>
<path d="M141.611 180.089C124.004 188.515 116.215 193.554 101.513 232.209C98.0552 241.3 99.6827 252.702 106.326 259.806C111.03 264.837 118.169 267.006 125.055 267.125C126.963 267.159 128.92 267.041 130.678 266.298C135.439 264.286 137.239 258.546 138.07 253.445C139.194 246.543 139.574 239.544 139.953 232.561C140.918 214.793 141.881 197.025 141.611 180.089Z" fill="white"/>
<path d="M190.805 178.787C210.795 191.436 230.622 212.648 235.628 234.582C237.792 244.066 237.458 255.074 230.814 262.179C226.11 267.21 218.972 269.38 212.086 269.499C210.177 269.532 208.221 269.414 206.463 268.671C201.701 266.66 199.901 260.92 199.071 255.818C197.946 248.916 197.566 241.917 197.188 234.934C196.224 217.167 190.535 195.724 190.805 178.787Z" fill="white"/>
<path d="M176.668 160.848H157.698V192.173H176.668V160.848Z" fill="#FFC1C0"/>
<path d="M142.535 140.005C141.752 138.546 140.341 137.395 138.711 137.101C137.082 136.807 135.274 137.454 134.338 138.821C133.553 139.967 133.434 141.436 133.477 142.824C133.523 144.356 133.745 145.911 134.417 147.289C135.088 148.666 136.258 149.854 137.73 150.28C139.079 150.67 140.534 150.396 141.863 149.945" fill="#FAC895"/>
<path d="M168.188 152.171C166.59 149.734 163.848 148.159 162.169 145.771C160.055 142.764 159.917 138.74 161.212 135.334C162.286 132.507 164.242 130.05 165.339 127.231C166.815 123.437 170.173 121.95 169.408 118.176C168.735 114.852 164.042 110.925 160.669 109.064C156.496 106.763 151.348 106.606 146.632 107.534C141.736 108.499 137.017 110.618 133.481 114.001C129.945 117.383 127.681 122.088 127.821 126.872C127.916 130.109 129.06 133.43 128.029 136.514C127.226 138.912 125.068 140.85 122.518 141.462C119.683 142.142 116.71 141.256 113.789 141.338C110.893 141.418 108.039 142.491 105.859 144.318C103.927 145.935 102.514 148.185 102.225 150.626C101.936 153.068 102.866 155.676 104.848 157.236C106.204 158.303 108.098 159.01 108.619 160.615C109.202 162.41 107.611 164.248 105.815 165.008C104.02 165.769 101.987 165.863 100.158 166.547C96.0669 168.078 93.6478 172.559 94.04 176.748C94.432 180.938 97.2667 184.693 100.941 186.998C104.614 189.304 109.043 190.296 113.426 190.571C117.809 190.845 122.202 190.443 126.586 190.177C131.6 189.873 136.716 189.731 141.449 188.116C146.234 186.483 150.342 183.436 154.166 180.233C155.976 178.716 157.811 177.059 158.598 174.882C159.17 173.301 157.936 166.556 158.598 165.008C160.019 161.686 165.295 165.22 167.616 162.401C169.969 159.543 170.209 155.253 168.188 152.171Z" fill="url(#paint0_linear)"/>
<path d="M202.956 125.42C200.041 125.38 197.201 126.771 194.283 126.825C190.608 126.893 187.196 124.756 185.098 121.776C183.357 119.304 182.417 116.307 180.694 113.82C178.377 110.474 179.024 106.858 175.468 105.38C172.336 104.077 166.456 105.767 163.026 107.521C158.783 109.691 155.771 113.869 153.901 118.297C151.959 122.893 151.075 127.99 151.898 132.814C152.721 137.638 155.353 142.146 159.396 144.709C162.132 146.442 165.524 147.353 167.502 149.934C169.04 151.941 169.437 154.814 168.517 157.27C167.494 160 178.355 160.035 176.788 162.501C175.234 164.946 176.495 170.172 176.788 173.001C177.048 175.507 162.891 177.61 164.752 179.216C166.614 180.822 169.295 181.511 171.697 180.742C173.34 180.216 174.987 179.042 176.608 179.509C178.422 180.031 179.054 182.377 178.679 184.291C178.305 186.204 177.245 187.942 176.788 189.84C175.766 194.087 178.125 198.6 181.817 200.621C185.508 202.641 190.206 202.393 194.173 200.64C198.14 198.886 201.441 195.772 204.122 192.293C206.802 188.815 208.929 184.949 211.162 181.168C213.717 176.843 216.463 172.524 217.774 167.698C219.099 162.818 218.874 157.709 218.36 152.747C218.116 150.398 217.77 147.95 216.407 146.079C215.417 144.72 213.956 143.765 213.044 142.35C211.086 139.314 212.15 135.121 211.113 131.62C210.061 128.071 206.641 125.471 202.956 125.42Z" fill="url(#paint1_linear)"/>
<g opacity="0.3098">
<g opacity="0.3098">
<path opacity="0.3098" d="M189.384 135.589L167.917 116.877L166.838 117.178L186.157 134.257C189.716 167.941 158.866 163.422 158.866 163.422C154.671 163.003 151.218 162.047 148.374 160.721C151.862 163.772 156.89 166.074 164.098 166.793C164.098 166.793 192.943 169.273 189.384 135.589Z" fill="#FAC895"/>
</g>
</g>
<path d="M188.037 139.689C188.936 138.298 190.436 137.266 192.084 137.105C193.732 136.945 195.481 137.737 196.303 139.175C196.993 140.38 196.992 141.855 196.837 143.235C196.665 144.757 196.318 146.289 195.537 147.608C194.757 148.927 193.494 150.015 191.992 150.321C190.616 150.6 189.188 150.209 187.9 149.651" fill="#FAC895"/>
<path d="M167.183 193.897C179.694 193.897 189.835 188.922 189.835 182.784C189.835 176.647 179.694 171.672 167.183 171.672C154.673 171.672 144.531 176.647 144.531 182.784C144.531 188.922 154.673 193.897 167.183 193.897Z" fill="#FFC1C0"/>
<path d="M127.633 275.857V213.432C127.633 195.684 138.8 178.394 154.899 173.387C157.005 172.273 163.753 184.536 166.96 187.532C166.96 187.532 175.756 175.879 179.114 173.387C195.334 178.321 206.733 195.598 206.733 213.432L202.883 277.581C202.883 280.812 204.114 282.382 200.883 282.382H134.159C130.555 282.382 127.633 279.46 127.633 275.857Z" fill="#EDEDED"/>
<path d="M187.163 149.853C187.418 148.743 187.57 147.512 187.203 146.408C186.858 145.37 185.92 144.556 185.727 143.472C185.619 142.868 185.852 142.276 186.077 141.728C186.311 141.158 186.54 140.598 186.667 139.992C186.898 138.9 186.892 137.77 186.665 136.677C186.436 135.573 185.986 134.515 185.31 133.61C184.603 132.663 183.707 131.894 182.777 131.172C180.806 129.641 178.215 127.979 177.855 125.276C177.791 124.797 177.03 124.79 177.094 125.276C177.762 130.344 184.133 131.33 185.723 135.874C186.108 136.974 186.224 138.173 186.044 139.327C185.951 139.928 185.775 140.51 185.539 141.07C185.304 141.627 185.036 142.178 184.949 142.783C184.784 143.933 185.43 144.817 185.997 145.748C186.669 146.851 186.764 147.963 186.503 149.213C186.214 150.591 185.715 151.918 185.547 153.321C185.36 154.895 185.647 156.411 186.101 157.914C186.224 158.323 186.801 158.149 186.73 157.741C186.489 156.373 186.187 154.954 186.298 153.558C186.401 152.292 186.881 151.084 187.163 149.853Z" fill="#C56752"/>
<path d="M188.712 135.284C188.581 134.087 188.286 132.916 187.849 131.795C187.011 129.645 185.715 127.736 184.262 125.957C184.011 125.65 183.582 126.087 183.828 126.392C185.207 128.104 186.453 129.978 187.238 132.042C187.643 133.108 187.93 134.228 188.04 135.364C188.153 136.522 188.028 137.621 187.892 138.769C187.85 139.112 188.371 139.146 188.469 138.847C188.837 137.73 188.839 136.441 188.712 135.284Z" fill="#C56752"/>
<path d="M190.781 130.163C190.664 127.696 190.111 125.274 189.045 123.042C188.854 122.643 188.265 122.991 188.451 123.388C189.47 125.555 189.938 127.933 190.041 130.315C190.092 131.488 190.061 132.665 189.961 133.835C189.856 135.057 189.623 136.253 189.453 137.465C189.399 137.848 189.944 138.029 190.052 137.63C190.379 136.425 190.535 135.153 190.662 133.912C190.791 132.667 190.841 131.414 190.781 130.163Z" fill="#C56752"/>
<path d="M193.546 141.884C192.811 141.965 192.138 142.387 191.653 142.951C191.75 141.852 192.089 140.777 192.722 139.868C192.972 139.508 192.389 139.178 192.139 139.527C191.436 140.501 191.127 141.659 191.031 142.845C190.924 144.157 191.041 145.578 191.349 146.859C191.417 147.142 191.879 147.087 191.862 146.789C191.812 145.874 191.67 144.974 191.633 144.063C191.691 144.037 191.744 144 191.776 143.939C191.825 143.842 191.879 143.749 191.939 143.659C191.969 143.611 192.003 143.565 192.036 143.52C192.07 143.472 192.028 143.528 192.051 143.501C192.067 143.481 192.083 143.461 192.099 143.441C192.239 143.275 192.396 143.126 192.565 142.991C192.571 142.986 192.634 142.937 192.604 142.959C192.575 142.981 192.639 142.933 192.646 142.93C192.688 142.9 192.73 142.87 192.773 142.842C192.863 142.783 192.958 142.729 193.054 142.679C193.271 142.568 193.393 142.526 193.621 142.442C193.752 142.393 193.845 142.277 193.824 142.131C193.805 142.004 193.687 141.869 193.546 141.884Z" fill="#D9914E"/>
<path opacity="0.4314" d="M184.598 111.322C184.598 111.322 194.876 125.45 187.24 134.365C187.24 134.365 183.878 136.456 186.739 141.501C189.599 146.546 188.255 149.289 186.708 151.495C185.161 153.702 186.172 158.248 188.069 160.438C188.069 160.438 188.791 160.148 187.8 156.582C187.8 156.582 186.859 154.268 188.611 152.675C188.611 152.675 192.058 149.311 188.923 141.754C188.923 141.754 188.839 136.127 194.45 137.818C194.45 137.818 198.307 128.845 190.46 117.092C190.331 116.899 184.751 111.467 184.58 111.308L184.598 111.322Z" fill="#C56752"/>
<path d="M152.469 173.889C153.725 173.313 155.836 172.655 155.159 173.904C153.914 176.199 152.201 180.657 152.576 183.376C152.956 186.132 154.471 188.571 156.17 190.713C158.349 193.464 160.895 195.896 163.71 197.918C164.535 198.51 165.426 199.117 165.845 200.068C166.139 200.734 166.164 201.491 166.184 202.225C166.869 227.845 167.202 253.475 167.183 279.104C167.182 280.546 167.077 282.212 165.965 283.064C165.21 283.643 164.203 283.662 163.267 283.658C153.126 283.612 142.985 283.565 132.844 283.519C131.545 283.513 130.125 283.462 129.141 282.576C128.224 281.75 127.783 280.437 127.693 279.175C126.071 256.401 125.528 239.115 125.528 209.137C125.528 203.621 127.141 198.104 129.691 193.277C131.173 190.472 133.166 187.994 135.318 185.715C140.194 180.549 146.128 176.792 152.469 173.889Z" fill="white"/>
<path d="M182.682 173.889C181.503 173.313 178.846 172.655 179.481 173.904C180.648 176.199 182.934 180.657 182.582 183.376C182.226 186.132 180.804 188.571 179.211 190.713C177.166 193.464 174.779 195.896 172.138 197.918C171.364 198.51 170.529 199.117 170.136 200.068C169.86 200.734 169.837 201.491 169.818 202.225C169.176 227.845 168.863 253.475 168.881 279.104C168.882 280.546 168.981 282.212 170.023 283.064C170.731 283.643 171.676 283.662 172.554 283.658C182.066 283.612 191.578 283.565 201.09 283.519C202.309 283.513 203.64 283.462 204.564 282.576C205.424 281.75 205.837 280.437 205.922 279.175C207.443 256.401 207.952 239.115 207.952 209.137C207.952 203.621 206.44 198.104 204.048 193.277C202.658 190.472 200.788 187.994 198.769 185.715C194.196 180.549 188.629 176.792 182.682 173.889Z" fill="white"/>
<path d="M141.375 135.409C141.375 135.409 135.09 163.896 164.098 166.793C164.098 166.793 192.943 169.273 189.383 135.589L167.916 116.877L147.894 122.464L141.375 135.409Z" fill="#FFC1C0"/>
<path d="M134.019 122.889C134.019 122.889 145.467 128.079 138.915 137.082C138.915 137.082 149.196 139.106 151.271 127.372C153.346 115.638 166.706 121.368 182.09 139.465C188.004 146.421 200.577 129.356 191.023 113.571C181.468 97.7855 159.528 84.1393 134.019 122.889Z" fill="url(#paint2_linear)"/>
<path d="M193.919 129.965C190.312 136.975 186.617 143.864 182.839 150.624C182.54 151.16 182.227 151.732 182.109 152.41C181.942 153.376 182.212 154.27 182.475 155.055C183.391 157.793 185.739 164.009 187.278 166.992C188.059 168.505 189.856 168.025 190.278 167.229C193.104 161.895 199.87 146.456 199.943 144.708C199.978 143.863 199.432 140.638 199.205 139.953C198.095 136.606 197.371 132.729 195.953 129.776C195.585 129.014 194.345 129.138 193.919 129.965Z" fill="#888888"/>
<path d="M195.342 129.966C191.735 136.976 188.04 143.865 184.263 150.625C183.963 151.161 183.65 151.733 183.532 152.411C183.365 153.376 183.635 154.271 183.898 155.056C184.814 157.794 187.385 163.904 188.701 166.993C189.046 167.803 190.054 167.816 190.476 167.019C193.302 161.685 201.293 146.457 201.365 144.708C201.4 143.864 200.854 140.639 200.627 139.954C199.518 136.607 198.093 133.64 196.675 130.687C196.308 129.924 195.767 129.138 195.342 129.966Z" fill="#575757"/>
<path d="M194.905 201.602C194.905 189.002 208.824 181.351 203.5 166.331C202.931 164.726 202.238 163.203 203.435 161.992C205.89 159.512 207.321 155.67 209.182 152.569C210.159 150.943 212.402 150.633 213.811 151.902C244.659 179.697 255.914 221.393 202.1 234.052" fill="white"/>
<path d="M225.64 212.935C238.587 195.698 228.811 171.246 209.558 152.074C210.65 150.891 212.561 150.772 213.814 151.899C237.392 173.149 249.523 202.523 229.89 220.835" fill="#DFDDDD"/>
<path d="M202.904 162.339C200.132 160.94 199.523 158.632 197.976 155.94C191.4 144.496 191.656 139.001 192.283 137.656C193.975 134.029 199.038 134.395 200.506 134.963C203.628 136.171 206.267 138.462 208.191 141.202C210.115 143.942 211.358 147.115 212.153 150.368C212.497 151.775 212.76 153.219 212.667 154.664C212.507 157.151 211.234 159.546 209.263 161.069C207.29 162.592 204.652 163.22 202.904 162.339Z" fill="#FEB3B1"/>
<path opacity="0.2642" d="M212.668 154.666C212.507 157.151 211.233 159.545 209.266 161.071C207.292 162.59 204.653 163.22 202.903 162.338C202.826 162.303 202.756 162.261 202.686 162.219C203.393 161.939 204.079 161.547 204.702 161.071C206.676 159.545 207.943 157.151 208.104 154.666C208.202 153.217 207.936 151.775 207.593 150.368C206.795 147.113 205.556 143.942 203.631 141.198C201.706 138.461 199.067 136.172 195.945 134.961C195.889 134.94 195.833 134.919 195.77 134.898C197.66 134.38 199.669 134.639 200.502 134.961C203.631 136.172 206.263 138.461 208.188 141.198C210.113 143.942 211.359 147.113 212.15 150.368C212.493 151.775 212.759 153.217 212.668 154.666Z" fill="#FFC1C0"/>
<path d="M214.48 156.1C214.106 158 213.261 159.79 212.033 161.289C211.428 162.027 210.737 162.706 209.976 163.284C209.198 163.873 208.347 164.313 207.501 164.789C207.212 164.953 207.405 165.416 207.727 165.326C209.646 164.784 211.395 163.321 212.643 161.808C213.951 160.222 214.866 158.336 215.26 156.316C215.36 155.807 214.58 155.589 214.48 156.1Z" fill="#E1E1E1"/>
<path d="M205.995 165.286C205.974 165.221 205.934 165.158 205.871 165.125C205.807 165.091 205.735 165.079 205.663 165.098C205.572 165.122 205.481 165.145 205.391 165.174C205.302 165.204 205.212 165.232 205.122 165.262C205.053 165.284 204.991 165.327 204.954 165.39C204.919 165.451 204.904 165.54 204.926 165.607C204.948 165.675 204.99 165.741 205.055 165.775C205.12 165.81 205.199 165.827 205.272 165.804C205.362 165.775 205.451 165.746 205.541 165.717C205.631 165.687 205.719 165.653 205.807 165.619C205.875 165.593 205.931 165.559 205.968 165.495C206.002 165.437 206.016 165.351 205.995 165.286Z" fill="#F1F3F4"/>
<path d="M115.134 291.31L110.165 233.844C109.994 231.863 111.968 230.183 114.464 230.183H221.466C223.984 230.183 225.966 231.891 225.762 233.886L219.889 291.353C219.707 293.132 217.838 294.502 215.593 294.502H119.433C117.167 294.501 115.289 293.107 115.134 291.31Z" fill="#575757"/>
<path d="M65.0271 295.202C65.0271 294.815 65.3407 294.502 65.7271 294.502H284.127C284.514 294.502 284.827 294.815 284.827 295.202C284.827 295.588 284.514 295.902 284.127 295.902H65.7271C65.3407 295.902 65.0271 295.588 65.0271 295.202Z" fill="#8A8888"/>
<path d="M130.056 219.628L125.03 229.985L131.122 230.138L130.056 219.628Z" fill="#CCCCCC"/>
<path d="M199.386 219.628L204.412 229.985L198.319 230.138L199.386 219.628Z" fill="#CCCCCC"/>
<path d="M64.1402 204.915C63.8686 204.915 63.8679 205.338 64.1402 205.338C64.4125 205.337 64.4125 204.915 64.1402 204.915Z" fill="#FFE4C1"/>
<path d="M66.2006 110.457C67.6937 113.072 68.6968 115.938 70.0982 118.604C71.4996 121.27 73.4029 123.817 76.1014 125.154C78.7999 126.491 82.4175 126.303 84.4531 124.083C85.5654 122.871 86.0855 121.234 86.4418 119.627C87.4778 114.954 87.3826 110.034 86.1667 105.404C85.0831 101.276 82.5995 96.9573 78.438 96.0095C74.525 95.1184 70.4531 97.6979 68.47 101.187C66.4869 104.675 66.1803 108.856 66.2006 110.457Z" fill="#FFC1C0"/>
<path d="M74.3262 123.228C74.5558 141.709 80.9818 160.419 94.4323 173.894C103.222 182.7 114.543 188.934 125.698 195.046C127.119 195.825 128.659 196.63 130.319 196.513C131.709 196.415 132.951 195.682 134.112 194.955C137.459 192.858 140.706 190.623 143.839 188.258C144.874 187.477 145.969 186.566 146.156 185.348C146.467 183.316 155.145 173.549 152.997 173.301C132.122 170.886 122.863 165.59 95.3031 133.03C91.2998 128.301 89.6121 120.647 83.0622 119.703C79.1667 119.142 74.3003 121.166 74.3262 123.228Z" fill="white"/>
<path d="M122.156 193.101C110.998 186.99 103.221 182.699 94.4287 173.893C80.9817 160.418 74.5557 141.707 74.3247 123.227C74.3177 122.618 74.7307 122.016 75.4167 121.491C75.3537 121.659 75.3327 121.827 75.3467 121.995C76.6067 140.433 84.0617 158.759 98.2367 171.464C107.505 179.766 118.316 183.924 129.004 186.429" fill="#DFDDDD"/>
<path d="M39.6578 104.948C44.6509 112.188 49.8828 121.428 56.1744 127.523C56.8975 128.223 58.0021 128.356 58.8624 127.833C72.2107 119.734 85.5471 108.959 97.6011 99.015C98.3913 98.3626 98.6392 97.2503 98.1744 96.3368C94.9431 89.9969 85.4855 78.9299 81.6663 74.5591C80.9411 73.7289 79.721 73.5595 78.7984 74.1636C73.4196 77.686 64.4127 84.0231 60.0076 87.003C52.7114 91.9387 47.3389 96.6063 40.1646 101.922C39.2084 102.631 38.9816 103.968 39.6578 104.948Z" fill="#575757"/>
<path d="M57.7943 87.7274C57.4583 88.0585 57.382 88.5737 57.6172 88.9818C59.0438 91.4584 60.5789 93.872 62.2183 96.2135C62.8966 97.1816 63.8395 98.2512 65.0099 98.0818C65.4908 98.0118 65.9129 97.7346 66.3168 97.4644C67.0063 97.0031 67.6965 96.5418 68.386 96.0798C68.5533 95.9685 68.7297 95.8446 68.8004 95.6563C68.897 95.3973 68.7598 95.1152 68.6247 94.8737C66.7529 91.5242 64.5591 88.3546 62.0853 85.4223C61.9362 85.2459 61.7633 85.0576 61.533 85.0338C61.3391 85.0135 61.1557 85.1178 60.9905 85.2207C59.8047 85.9592 58.7043 86.8328 57.7943 87.7274Z" fill="#EDEDED"/>
<path d="M64.4168 95.6359C65.3593 95.6359 66.1234 94.8718 66.1234 93.9293C66.1234 92.9867 65.3593 92.2227 64.4168 92.2227C63.4743 92.2227 62.7102 92.9867 62.7102 93.9293C62.7102 94.8718 63.4743 95.6359 64.4168 95.6359Z" fill="black"/>
<path d="M81.131 112.538C81.2822 109.325 81.8933 105.892 83.3248 102.983C83.8232 101.969 84.4959 101.058 85.4031 100.376C85.9484 99.9661 87.2574 98.9721 87.9791 99.4544C88.46 99.7757 89.0788 100.294 88.9507 100.858C87.6368 106.668 88.1492 111.44 87.1538 114.803C86.4839 117.067 86.8766 115.682 81.131 112.538Z" fill="#FFC1C0"/>
<path d="M93.8292 99.3945C93.8299 99.3945 93.8306 99.3938 93.8306 99.3931C93.8466 99.3812 93.871 99.3562 93.8292 99.3945Z" fill="black"/>
<path d="M76.035 124.612C78.7825 123.289 81.7939 122.595 84.8424 122.569C85.2925 122.566 85.2939 121.866 84.8424 121.869C81.6665 121.896 78.5424 122.63 75.6822 124.007C75.2755 124.203 75.6297 124.806 76.035 124.612Z" fill="#E1E1E1"/>
<path d="M229.969 219.475C227.679 214.167 224.257 209.33 220.651 204.833C217.003 200.285 212.978 196.054 208.825 191.963C206.48 189.654 204.094 187.387 201.713 185.115C201.327 184.748 200.742 185.329 201.127 185.698C205.327 189.72 209.512 193.768 213.483 198.017C217.435 202.246 221.179 206.68 224.408 211.487C226.213 214.175 227.82 216.985 229.373 219.823C229.592 220.221 230.139 219.87 229.969 219.475Z" fill="#E1E1E1"/>
<path d="M139.138 180.611C131.684 183.72 125.209 188.82 119.952 194.909C114.278 201.481 110.068 209.164 106.771 217.163C104.819 221.898 103.144 226.747 101.746 231.673C101.65 232.01 102.163 232.148 102.27 231.817C105.008 223.272 107.986 214.806 112.39 206.954C116.384 199.833 121.484 193.265 127.85 188.108C131.323 185.294 135.175 182.927 139.301 181.201C139.659 181.052 139.502 180.459 139.138 180.611Z" fill="#E1E1E1"/>
<path d="M121.264 190.769C120.408 190.515 119.551 190.268 118.69 190.033C118.316 189.93 118.156 190.511 118.529 190.613C119.391 190.847 120.255 191.07 121.122 191.286C121.457 191.369 121.595 190.868 121.264 190.769Z" fill="#FFDFC5"/>
<path d="M162.667 69.7608C162.214 69.8171 161.806 70.1073 161.557 70.4894C161.306 70.8712 161.203 71.337 161.207 71.7937C161.216 72.7304 161.703 73.667 162.504 74.1515C163.307 74.6363 164.405 74.6159 165.148 74.0449C165.413 73.8407 165.63 73.5759 165.793 73.2833C166.322 72.3314 166.226 71.0466 165.503 70.2312C164.781 69.4157 163.46 69.1781 162.667 69.7608Z" fill="#FFE36C"/>
<path d="M168.151 54.7024C168.356 54.0381 168.562 53.3685 168.894 52.7578C169.225 52.1471 169.694 51.591 170.312 51.2714C170.521 51.1634 170.751 51.082 170.987 51.0925C171.222 51.1029 171.462 51.2182 171.575 51.4248C171.698 51.6509 171.65 51.9284 171.595 52.1806C171.315 53.4598 170.935 54.7168 170.461 55.9366" fill="#FFE36C"/>
<path d="M172.218 55.8746C170.564 54.6061 168.468 53.9971 166.403 54.2789C165.424 54.4127 164.451 54.6859 163.609 55.2046C160.389 57.1918 160.159 61.8581 157.657 64.6971C157.374 65.0186 157.039 65.3279 156.621 65.4199C155.668 65.6296 154.5 64.6978 153.805 65.3819C153.427 65.7536 153.509 66.4172 153.839 66.8321C154.169 67.2469 154.675 67.4729 155.162 67.6829C160.644 70.0464 166.207 72.2863 172.005 73.7072C172.691 73.8749 173.423 74.0311 174.094 73.8103C174.765 73.5894 175.316 72.8457 175.072 72.1825C174.849 71.5795 174.139 71.3461 173.528 71.147C172.678 70.8699 172.975 70.8623 172.192 70.4317C171.903 70.274 177.877 60.2121 172.218 55.8746Z" fill="#FFE36C"/>
<path d="M158.371 66.4209C162.404 67.4931 166.359 68.8312 170.213 70.4291C170.627 70.6006 170.946 69.9764 170.528 69.8039C166.617 68.1824 162.601 66.8229 158.509 65.7342C158.073 65.6186 157.936 66.306 158.371 66.4209Z" fill="#EFCF4B"/>
<path d="M162.344 70.9198C163.335 71.1323 164.297 71.4467 165.221 71.862C165.394 71.9396 165.603 71.8814 165.691 71.7069C165.773 71.5438 165.709 71.3147 165.536 71.2369C164.557 70.7963 163.531 70.4582 162.481 70.2334C162.042 70.1388 161.902 70.8249 162.344 70.9198Z" fill="#EFCF4B"/>
<path d="M167.261 55.1017C164.698 55.5147 162.543 57.3861 161.773 59.8644C161.639 60.2932 162.326 60.4293 162.459 60.0017C163.129 57.849 165.079 56.1588 167.305 55.8002C167.744 55.7292 167.706 55.0298 167.261 55.1017Z" fill="#FFF4C5"/>
<path d="M27.7973 145.43C27.5574 148.734 27.3003 152.037 27.0561 155.341C27.0005 156.093 26.8769 156.837 27.3786 157.462C27.9242 158.142 28.742 158.071 29.5096 158.116C31.3835 158.225 33.252 158.43 35.1054 158.736C36.0346 158.89 36.9562 159.076 37.8788 159.269C38.599 159.419 39.3435 159.157 39.725 158.464C39.9369 158.079 39.9616 157.614 40.0265 157.184C40.099 156.704 40.1685 156.222 40.2355 155.741C40.3724 154.756 40.4985 153.77 40.6136 152.783C40.7284 151.799 40.8322 150.813 40.9247 149.826C40.9716 149.323 41.0165 148.821 41.0575 148.318C41.0948 147.862 41.1743 147.38 41.1555 146.922C41.1216 146.103 40.5684 145.477 39.8289 145.285C39.0253 145.076 38.2096 144.913 37.3926 144.774C35.744 144.492 34.0807 144.313 32.4149 144.185C31.6624 144.127 30.9095 144.08 30.1557 144.038C29.4715 144 28.7492 143.874 28.2148 144.438C27.9573 144.711 27.8367 145.054 27.7973 145.43C27.7722 145.666 28.008 145.871 28.2161 145.871C28.4636 145.871 28.6097 145.667 28.6348 145.43C28.7052 144.762 29.4116 144.879 29.8601 144.904C30.5293 144.94 31.198 144.98 31.8663 145.026C33.347 145.13 34.8277 145.267 36.2975 145.485C37.0777 145.601 37.8553 145.737 38.6271 145.905C38.9951 145.984 39.3699 146.058 39.7309 146.168C39.9708 146.241 40.1727 146.423 40.2648 146.671C40.3913 147.008 40.2908 147.431 40.2635 147.779C40.2284 148.228 40.1911 148.677 40.1513 149.126C40.0705 150.042 39.98 150.956 39.88 151.87C39.684 153.658 39.4499 155.441 39.1786 157.218C39.127 157.555 39.1191 157.935 38.8775 158.191C38.6962 158.382 38.4407 158.469 38.1865 158.438C37.7891 158.39 37.3888 158.267 36.9952 158.19C36.5752 158.107 36.1543 158.029 35.7331 157.956C34.0271 157.661 32.3081 157.444 30.5837 157.308C30.1578 157.275 29.7315 157.247 29.3048 157.224C28.9849 157.207 28.598 157.257 28.299 157.117C27.7115 156.842 27.8312 156.187 27.8714 155.638C28.0972 152.575 28.3338 149.513 28.5603 146.45C28.5854 146.11 28.6101 145.771 28.6348 145.431C28.6759 144.864 27.8379 144.867 27.7973 145.43Z" fill="#8A8888"/>
<path d="M33.3958 155.002C33.4401 155.073 33.4942 155.15 33.5741 155.162C33.6487 155.174 33.7178 155.125 33.7785 155.079C36.2491 153.192 41.1828 148.711 43.8524 146.412C44.0592 146.234 44.0504 145.896 43.8297 145.736C43.4382 145.452 43.1137 145.066 42.8976 144.62C42.8532 144.529 42.7862 144.418 42.6899 144.433C42.6535 144.439 42.6221 144.462 42.5928 144.484C41.1866 145.555 35.8396 150.295 34.508 151.629C34.3375 151.799 34.0653 151.784 33.9142 151.595C33.3547 150.895 32.8283 150.165 32.3376 149.411C32.2161 149.224 31.9804 149.167 31.7961 149.282L31.4096 149.524C31.2086 149.65 31.0013 149.781 30.8627 149.979C30.5127 150.482 32.5608 153.679 33.3958 155.002Z" fill="black"/>
<path d="M283.318 220.844C282.828 220.711 282.541 220.172 282.674 219.625C282.829 218.984 286.595 203.937 296.4 204.893C298.485 205.096 300.118 206.102 301.252 207.882C304.732 213.343 302.193 224.373 302.083 224.84C301.951 225.399 301.434 225.758 300.926 225.643C300.415 225.529 300.112 224.981 300.243 224.423C300.268 224.317 302.68 213.828 299.672 209.112C298.84 207.809 297.685 207.102 296.138 206.951C287.979 206.155 284.543 219.92 284.509 220.059C284.374 220.616 283.853 220.971 283.347 220.852C283.337 220.849 283.327 220.847 283.318 220.844Z" fill="#FF6B41"/>
<path d="M256.777 253.88L274.844 213.839L299.982 220.201L295.757 267.475L258.189 257.235C256.853 256.87 256.185 255.283 256.777 253.88Z" fill="#F93700"/>
<path d="M304.715 221.981L299.981 220.201L295.757 267.475L300.58 268.79C301.557 269.056 302.558 268.265 302.646 267.156L304.715 221.981Z" fill="#FFDBDA"/>
<path d="M277.973 219.258C277.484 219.125 277.197 218.586 277.329 218.039C277.485 217.398 281.25 202.351 291.056 203.307C293.141 203.51 294.774 204.516 295.908 206.296C299.388 211.757 296.849 222.788 296.739 223.255C296.607 223.813 296.089 224.172 295.581 224.057C295.072 223.949 294.768 223.396 294.899 222.837C294.924 222.732 297.336 212.243 294.328 207.526C293.496 206.223 292.341 205.516 290.794 205.365C282.634 204.569 279.199 218.334 279.165 218.473C279.03 219.031 278.509 219.385 278.002 219.266C277.993 219.264 277.983 219.261 277.973 219.258Z" fill="#F93700"/>
<path d="M131.284 73.5061L118.507 75.6292C117.995 75.7142 117.47 75.4444 117.2 74.9578L112.456 66.4169C112.238 66.0257 112.211 65.5494 112.382 65.1428C112.554 64.7362 112.902 64.4529 113.313 64.3846L132.958 61.1203L132.012 72.6669C131.976 73.0958 131.677 73.4408 131.284 73.5061ZM113.393 64.8665C113.125 64.9111 112.906 65.089 112.794 65.3544C112.682 65.6201 112.699 65.9189 112.841 66.1745L117.585 74.7155C117.759 75.0286 118.097 75.2024 118.427 75.1477L131.204 73.0246C131.397 72.9925 131.544 72.8227 131.562 72.6116L132.457 61.699L113.393 64.8666L113.393 64.8665Z" fill="black"/>
<path d="M132.929 61.4631L132.484 61.3629L133.618 54.6964L136.079 54.0082L136.203 54.4801L134.012 55.0933L132.929 61.4631Z" fill="url(#paint3_linear)"/>
<path d="M133.095 87.1923L122.465 88.9586C122.135 89.0134 121.808 88.8472 121.631 88.5353C121.454 88.2236 121.468 87.838 121.667 87.5531L131.081 73.1172C131.152 73.0087 131.293 72.9846 131.395 73.064C131.498 73.1434 131.524 73.2958 131.453 73.4044L122.035 87.8467C121.94 87.9833 121.933 88.1463 122.014 88.2889C122.095 88.4315 122.234 88.5019 122.385 88.4768L133.015 86.7105C133.137 86.6901 133.255 86.7813 133.277 86.9145C133.299 87.0476 133.218 87.1719 133.095 87.1923Z" fill="black"/>
<path d="M132.014 69.086L115.616 71.8108C115.493 71.8312 115.376 71.7401 115.354 71.607C115.332 71.4738 115.413 71.3497 115.536 71.3293L131.934 68.6045C132.057 68.5841 132.174 68.6752 132.196 68.8084C132.218 68.9415 132.137 69.0656 132.014 69.086Z" fill="black"/>
<path d="M132.347 65.9267L114.036 68.9691C113.914 68.9895 113.796 68.8983 113.774 68.7652C113.752 68.632 113.834 68.5079 113.956 68.4875L132.267 65.445C132.389 65.4246 132.507 65.5157 132.529 65.6489C132.551 65.782 132.469 65.9063 132.347 65.9267Z" fill="black"/>
<path d="M120.113 75.3703C120.102 75.3721 120.09 75.373 120.079 75.373C119.859 75.3719 119.855 75.3718 117.854 69.7429C117.835 69.6884 115.915 64.2827 115.906 64.1857L116.131 64.1676L116.326 64.2966L116.131 64.1676L116.346 64.0985C116.373 64.186 119.88 74.1865 120.239 74.9601C120.281 75.0086 120.305 75.0745 120.301 75.1451C120.295 75.2592 120.215 75.3533 120.113 75.3703Z" fill="black"/>
<path d="M122.783 74.9172C122.66 74.9376 122.543 74.8464 122.52 74.7133L120.643 63.4126C120.621 63.2796 120.702 63.1553 120.825 63.135C120.948 63.1146 121.065 63.2058 121.087 63.3388L122.965 74.6394C122.987 74.7726 122.905 74.8968 122.783 74.9172Z" fill="black"/>
<path d="M126.389 74.3213C126.385 74.3221 126.38 74.3227 126.375 74.3232C126.251 74.3352 126.139 74.236 126.125 74.1018L124.944 62.9495C124.93 62.8153 125.02 62.7008 125.142 62.6852C125.266 62.6734 125.378 62.7726 125.392 62.9067L126.573 74.0591C126.587 74.188 126.506 74.302 126.389 74.3213Z" fill="black"/>
<path d="M129.098 73.8705C129.081 73.8732 129.065 73.8741 129.047 73.8728C128.923 73.8631 128.826 73.7466 128.832 73.6122L129.322 61.9181C129.328 61.784 129.434 61.6831 129.558 61.6923C129.683 61.7021 129.779 61.8187 129.773 61.953L129.283 73.6471C129.278 73.7628 129.199 73.8536 129.098 73.8705Z" fill="black"/>
<path d="M123.151 91.4542C123.871 91.3346 124.349 90.6053 124.219 89.8252C124.09 89.0451 123.401 88.5096 122.682 88.6292C121.962 88.7488 121.484 89.4781 121.613 90.2582C121.743 91.0383 122.431 91.5738 123.151 91.4542Z" fill="black"/>
<path d="M123.043 90.8126C123.435 90.7474 123.696 90.3495 123.625 89.924C123.555 89.4984 123.179 89.2063 122.787 89.2715C122.394 89.3368 122.133 89.7346 122.204 90.1602C122.275 90.5857 122.65 90.8778 123.043 90.8126Z" fill="white"/>
<path d="M132.63 89.8812C133.35 89.7616 133.828 89.0322 133.699 88.252C133.569 87.4718 132.881 86.9363 132.161 87.0559C131.441 87.1755 130.963 87.9049 131.093 88.6851C131.222 89.4652 131.911 90.0007 132.63 89.8812Z" fill="black"/>
<path d="M132.524 89.2383C132.916 89.1731 133.177 88.7753 133.106 88.3497C133.036 87.9242 132.66 87.6321 132.268 87.6973C131.875 87.7626 131.614 88.1604 131.685 88.5859C131.756 89.0115 132.131 89.3036 132.524 89.2383Z" fill="white"/>
<path d="M223.624 107.975C236.119 107.975 246.248 98.5784 246.248 86.9874C246.248 75.3964 236.119 66 223.624 66C211.129 66 201 75.3964 201 86.9874C201 98.5784 211.129 107.975 223.624 107.975Z" fill="black"/>
<path d="M223.624 104.556C234.083 104.556 242.562 96.6904 242.562 86.9875C242.562 77.2847 234.083 69.4189 223.624 69.4189C213.164 69.4189 204.685 77.2847 204.685 86.9875C204.685 96.6904 213.164 104.556 223.624 104.556Z" fill="white"/>
<path d="M223.258 71.4965C223.274 71.3026 223.082 71.1367 222.898 71.1367C222.692 71.1367 222.553 71.3019 222.538 71.4965C222.467 72.4751 222.527 73.4992 222.8 74.4449C222.879 74.7193 223.345 74.6808 223.318 74.3749C223.232 73.4131 223.18 72.4618 223.258 71.4965Z" fill="#575757"/>
<path d="M240.286 87.4207C239.699 87.2926 239.096 87.231 238.5 87.1533C238.32 87.1295 238.148 87.3283 238.156 87.497C238.166 87.7014 238.308 87.8176 238.5 87.8407C239.067 87.9086 239.636 87.9912 240.206 88.0101C240.541 88.022 240.62 87.4935 240.286 87.4207Z" fill="#575757"/>
<path d="M209.282 88.0592C209.22 87.8688 209.058 87.8016 208.872 87.8261C208.916 87.8205 208.81 87.8338 208.797 87.8352C208.751 87.8408 208.705 87.8457 208.659 87.8513C208.569 87.8632 208.48 87.8828 208.391 87.8982C208.323 87.9101 208.254 87.9206 208.185 87.9304C208.172 87.9318 208.126 87.9381 208.118 87.9395C208.075 87.9451 208.031 87.95 207.988 87.9542C207.673 87.9864 207.356 87.9983 207.039 87.9913C206.852 87.9871 206.674 88.1586 206.682 88.3483C206.691 88.5457 206.839 88.6997 207.039 88.7046C207.368 88.7137 207.697 88.7018 208.025 88.6675C208.374 88.6311 208.717 88.5828 209.049 88.4687C209.214 88.412 209.34 88.2377 209.282 88.0592Z" fill="#575757"/>
<path d="M224.395 100.436C224.176 100.446 224.015 100.607 224.005 100.826C223.988 101.2 223.966 101.573 223.961 101.946C223.955 102.32 223.936 102.696 223.982 103.066C224.001 103.22 224.086 103.353 224.253 103.373C224.4 103.391 224.562 103.304 224.596 103.15C224.68 102.763 224.698 102.363 224.727 101.968C224.756 101.589 224.768 101.207 224.785 100.826C224.795 100.622 224.6 100.427 224.395 100.436Z" fill="#575757"/>
<path d="M232.634 88.6204C231.164 88.5343 229.673 88.6113 228.2 88.591C226.748 88.5714 225.298 88.5217 223.845 88.4832C223.765 88.4811 223.47 88.5112 223.347 88.4832C223.377 88.4405 223.344 88.2578 223.346 88.1983C223.358 87.8301 223.372 87.4612 223.386 87.093C223.413 86.3559 223.429 85.6188 223.438 84.8817C223.459 83.4075 223.473 81.9333 223.493 80.4598C223.499 80.0629 222.885 80.0629 222.877 80.4598C222.841 82.039 222.794 83.6182 222.765 85.1981C222.75 85.9877 222.744 86.7773 222.745 87.5676C222.745 88.0429 222.535 88.9158 223.172 89.0446C223.511 89.1139 223.895 89.0859 224.241 89.0999C224.636 89.1167 225.032 89.1272 225.428 89.1363C226.22 89.1545 227.011 89.1657 227.804 89.1734C229.401 89.1881 231.04 89.27 232.634 89.1328C232.96 89.1034 232.965 88.6393 232.634 88.6204Z" fill="black"/>
<path d="M209.22 80.3958C209.8 80.7878 210.381 81.1805 210.96 81.5725C211.098 81.6656 211.318 81.6034 211.394 81.4584C211.479 81.2981 211.427 81.1238 211.28 81.0244C210.7 80.6317 210.12 80.2397 209.539 79.8477C209.401 79.7546 209.182 79.8169 209.105 79.9618C209.021 80.1221 209.073 80.2964 209.22 80.3958Z" fill="#575757"/>
<path d="M213.583 74.9608C213.978 75.4949 214.371 76.029 214.765 76.5631C214.863 76.6961 215.044 76.7766 215.199 76.6772C215.331 76.5918 215.418 76.386 215.313 76.2432C214.919 75.7091 214.526 75.175 214.132 74.6409C214.033 74.5079 213.852 74.4274 213.698 74.5268C213.565 74.6122 213.478 74.818 213.583 74.9608Z" fill="#575757"/>
<path d="M231.947 73.8407C231.525 74.6842 231.035 75.4913 230.482 76.255C230.382 76.3936 230.459 76.6085 230.596 76.689C230.756 76.7828 230.929 76.7142 231.03 76.5749C231.583 75.8112 232.073 75.0041 232.495 74.1606C232.571 74.0073 232.536 73.8169 232.381 73.7266C232.241 73.6447 232.025 73.6867 231.947 73.8407Z" fill="#575757"/>
<path d="M236.568 78.6756C236.279 78.9157 236.052 79.0921 235.747 79.3105C235.453 79.5219 235.152 79.7221 234.844 79.9125C234.703 80 234.636 80.2002 234.73 80.3465C234.821 80.4879 235.013 80.5537 235.164 80.4599C235.812 80.0588 236.431 79.6108 237.016 79.1236C237.145 79.0172 237.135 78.7834 237.016 78.6749C236.881 78.5503 236.705 78.5622 236.568 78.6756Z" fill="#575757"/>
<path d="M211.415 96.9982C211.98 96.595 212.506 96.1393 212.978 95.6297C213.091 95.5079 213.107 95.3 212.978 95.181C212.855 95.0683 212.65 95.0508 212.529 95.181C212.306 95.4225 212.071 95.6528 211.824 95.8705C211.703 95.9776 211.578 96.082 211.451 96.1827C211.419 96.2079 211.387 96.2331 211.355 96.2576C211.378 96.2394 211.379 96.2394 211.355 96.2576C211.338 96.2716 211.32 96.2849 211.302 96.2989C211.233 96.35 211.164 96.4011 211.094 96.4501C210.96 96.546 210.882 96.7308 210.98 96.8841C211.067 97.0185 211.27 97.1011 211.415 96.9982Z" fill="#575757"/>
<path d="M217.827 99.0523C217.571 99.5773 217.317 100.102 217.061 100.627C216.988 100.776 217.016 100.977 217.175 101.061C217.317 101.136 217.532 101.107 217.609 100.947C217.865 100.422 218.12 99.8972 218.375 99.3722C218.448 99.2231 218.421 99.0222 218.262 98.9382C218.118 98.864 217.904 98.8934 217.827 99.0523Z" fill="#575757"/>
<path d="M231.265 98.4474C231.558 98.789 231.85 99.1306 232.143 99.4722C232.251 99.5982 232.482 99.5919 232.592 99.4722C232.715 99.3378 232.707 99.1586 232.592 99.0235C232.299 98.6819 232.006 98.3403 231.714 97.9987C231.605 97.872 231.375 97.879 231.265 97.9987C231.141 98.1338 231.149 98.313 231.265 98.4474Z" fill="#575757"/>
<path d="M236.312 94.095C236.704 94.5157 237.164 94.8762 237.666 95.1569C237.81 95.2381 238.018 95.1961 238.1 95.0428C238.178 94.893 238.14 94.6956 237.985 94.6088C237.868 94.5423 237.752 94.4723 237.64 94.3974C237.583 94.3596 237.528 94.3218 237.473 94.2819C237.446 94.2623 237.418 94.242 237.391 94.2217C237.379 94.2126 237.367 94.2035 237.355 94.1944C237.32 94.1678 237.416 94.242 237.357 94.1958C237.145 94.0264 236.946 93.8444 236.761 93.6456C236.648 93.5238 236.426 93.5224 236.312 93.6456C236.193 93.7765 236.191 93.9648 236.312 94.095Z" fill="#575757"/>
<path d="M63.0905 178.461C63.0905 178.461 60.3193 172.594 55.1211 175.778C50.1967 178.793 54.9393 185.918 64.3374 187.954C65.3564 188.175 66.3888 187.862 67.107 187.12C69.7957 184.341 75.7451 177.068 69.2077 172.76C64.9858 169.978 63.0905 178.461 63.0905 178.461Z" fill="#F93700"/>
<path d="M25.8792 217.206C25.421 217.282 24.9827 216.98 24.8923 216.522C24.7866 215.985 22.3984 203.334 30.9458 200.53C32.7634 199.934 34.4979 200.103 36.101 201.032C41.0187 203.883 42.954 213.078 43.0338 213.468C43.1296 213.934 42.8288 214.39 42.3618 214.486C41.8933 214.583 41.4388 214.281 41.3427 213.815C41.3245 213.727 39.4822 204.984 35.2326 202.523C34.0582 201.843 32.8327 201.728 31.4839 202.169C24.3711 204.502 26.5632 216.072 26.5861 216.189C26.6782 216.656 26.3736 217.109 25.906 217.202C25.8971 217.203 25.8881 217.205 25.8792 217.206Z" fill="#C4C4C4"/>
<path d="M15.8478 251.548L16.2191 214.993L39.5709 210.743L53.431 247.758L18.2625 253.561C17.0115 253.767 15.8692 252.815 15.8478 251.548Z" fill="#06050E"/>
<path d="M44.1837 210.38L39.5721 210.743L53.4322 247.758L57.947 247.013C58.8623 246.862 59.4076 245.909 59.0733 245.044L44.1837 210.38Z" fill="#8A8888"/>
<path d="M20.829 217.936C20.3707 218.011 19.9324 217.71 19.8422 217.252C19.7363 216.714 17.3482 204.063 25.8958 201.26C27.7134 200.663 29.4479 200.832 31.0509 201.762C35.9686 204.612 37.904 213.807 37.9839 214.197C38.0796 214.664 37.7786 215.12 37.3118 215.215C36.8467 215.317 36.3885 215.011 36.2926 214.544C36.2745 214.456 34.4321 205.714 30.1825 203.253C29.0082 202.573 27.7826 202.457 26.4338 202.899C19.321 205.232 21.5131 216.801 21.5359 216.918C21.628 217.386 21.3234 217.839 20.8557 217.931C20.847 217.933 20.8379 217.934 20.829 217.936Z" fill="#8A8888"/>
<path d="M311.796 176.431C311.556 179.735 311.299 183.038 311.055 186.341C310.999 187.094 310.876 187.838 311.377 188.463C311.923 189.143 312.741 189.072 313.509 189.117C315.382 189.226 317.251 189.431 319.104 189.737C320.033 189.891 320.955 190.077 321.878 190.269C322.598 190.42 323.342 190.158 323.724 189.465C323.936 189.08 323.961 188.615 324.025 188.185C324.098 187.705 324.167 187.223 324.234 186.742C324.371 185.757 324.497 184.771 324.613 183.784C324.727 182.8 324.831 181.813 324.924 180.827C324.971 180.324 325.015 179.822 325.056 179.319C325.094 178.863 325.173 178.381 325.154 177.923C325.12 177.104 324.567 176.478 323.828 176.286C323.024 176.077 322.208 175.914 321.391 175.775C319.743 175.493 318.08 175.314 316.414 175.186C315.661 175.128 314.908 175.081 314.155 175.039C313.47 175.001 312.748 174.874 312.214 175.439C311.956 175.712 311.836 176.055 311.796 176.431C311.771 176.667 312.007 176.872 312.215 176.872C312.462 176.872 312.609 176.668 312.634 176.431C312.704 175.763 313.411 175.88 313.859 175.905C314.528 175.941 315.197 175.981 315.865 176.027C317.346 176.131 318.827 176.268 320.296 176.486C321.077 176.602 321.854 176.738 322.626 176.905C322.994 176.985 323.369 177.059 323.73 177.169C323.97 177.242 324.172 177.424 324.264 177.672C324.39 178.009 324.29 178.432 324.262 178.78C324.227 179.229 324.19 179.678 324.15 180.127C324.069 181.043 323.979 181.957 323.879 182.871C323.683 184.659 323.449 186.442 323.177 188.219C323.126 188.556 323.118 188.936 322.876 189.192C322.695 189.383 322.44 189.47 322.185 189.439C321.788 189.391 321.388 189.268 320.994 189.191C320.574 189.108 320.153 189.03 319.732 188.957C318.026 188.662 316.307 188.445 314.583 188.309C314.157 188.276 313.73 188.248 313.304 188.225C312.984 188.208 312.597 188.258 312.298 188.118C311.71 187.843 311.83 187.187 311.87 186.639C312.096 183.576 312.333 180.514 312.559 177.451C312.584 177.111 312.609 176.772 312.634 176.432C312.675 175.865 311.837 175.868 311.796 176.431Z" fill="#8A8888"/>
<path d="M317.395 186.003C317.439 186.074 317.493 186.151 317.573 186.163C317.648 186.175 317.717 186.126 317.777 186.08C320.248 184.193 325.182 179.712 327.851 177.413C328.058 177.235 328.049 176.897 327.829 176.737C327.437 176.453 327.113 176.067 326.897 175.621C326.852 175.53 326.785 175.419 326.689 175.434C326.652 175.44 326.621 175.463 326.592 175.485C325.186 176.556 319.838 181.296 318.507 182.63C318.336 182.8 318.064 182.785 317.913 182.596C317.354 181.895 316.827 181.166 316.336 180.412C316.215 180.225 315.979 180.168 315.795 180.283L315.409 180.525C315.208 180.651 315 180.782 314.862 180.98C314.512 181.483 316.56 184.68 317.395 186.003Z" fill="black"/>
<defs>
<linearGradient id="paint0_linear" x1="88.9619" y1="197.163" x2="170.895" y2="115.719" gradientUnits="userSpaceOnUse">
<stop stop-color="#3F3D56"/>
<stop offset="1"/>
</linearGradient>
<linearGradient id="paint1_linear" x1="195.891" y1="216.256" x2="174.264" y2="102.772" gradientUnits="userSpaceOnUse">
<stop stop-color="#3F3D56"/>
<stop offset="1"/>
</linearGradient>
<linearGradient id="paint2_linear" x1="-28.8134" y1="179.353" x2="202.328" y2="156.111" gradientUnits="userSpaceOnUse">
<stop stop-color="#09005D"/>
<stop offset="1" stop-color="#050506"/>
</linearGradient>
<linearGradient id="paint3_linear" x1="132.884" y1="61.5092" x2="135.684" y2="53.8635" gradientUnits="userSpaceOnUse">
<stop stop-color="#09005D"/>
<stop offset="1" stop-color="#1A0F91"/>
</linearGradient>
</defs>
</svg>
